<svg version="1.1" id="Camada_1" xmlns="http://www.w3.org/2000/svg" x="0" y="0" viewBox="0 0 2000 1205.1" style="enable-background:new 0 0 2000 1205.1" xml:space="preserve"><style>.st1{fill:#9f3521}.st2{fill:#fff}</style><path d="M1604.9 41.5c-547.3-79.7-1251-58.8-1478 189.7-204.6 224-123.6 667.9-22.5 866.8 48.9 96.3 89.2 121.1 105.6 100.3.1-.2.3-.4.4-.6-.4.6-.8 1-1.3 1.5.1-6.5 3.2-126.5 224.7-186.4 90-24.2 196.8-35.3 310.4-43.7 28.4-2.2 57.3-3.8 86.5-5.2 29.2-1.7 58.8-2.7 88.6-3.6 29.8-.9 59.9-1.6 90.1-2 30-.1 60.2-.4 90.5-.5 60.8.5 121.2 2 180.1 4.1 59 1.6 116.5 3.5 171.8 3.4 55.3 0 108.2-1.7 157.6-6.9 49.4-4.8 95-13.8 135.5-26.8 40.5-12.6 75-30.8 103-51 27.9-20.4 49-42.9 64.5-63.3 14.9-20.9 25.6-38.2 31.9-51.1 5.6-11.2 9-17.7 9.8-19.2.9-2.6 1.8-5.2 2.6-7.9 90.3-298 68.9-636.4-351.8-697.6z" style="fill:#f04e29"/><path class="st1" d="M1912.2 817.2c-15.4 20.4-36.6 42.9-64.5 63.3-28 20.2-62.5 38.5-103 51.1-40.5 13-86 21.9-135.5 26.8-49.4 5.3-102.3 6.9-157.6 6.9-55.2.1-112.8-1.8-171.7-3.5-59-1.9-119.3-3.5-180.2-3.9-30.2.1-60.5.3-90.4.5-30.2.4-60.3 1.1-90.1 2-29.8.9-59.4 1.9-88.6 3.6-29.2 1.4-58.1 3-86.5 5.2-113.5 8.5-220.4 19.5-310.4 43.7-221.5 59.9-224.6 179.9-224.7 186.4.5-.5.9-.9 1.3-1.5 43.5-50.5 43.5-195.8 887.9-188.9 362 2.9 761.4 48.1 855.8-262.2 0 0 0 .1-.1.3-.8 1.5-4.2 8-9.8 19.2-6.3 12.8-17 30-31.9 51zM1091.8 425.8s0-.1-.1-.2-.1-.2-.2-.2c-.1-.2-.1-.2-.2-.3 0-.1-.2-.1-.2-.2-.1-.1-.1-.2-.2-.2-.1-.1-.1-.2-.2-.2 0-.1-.1-.2-.1-.2-.2-.1-.2-.2-.3-.2 0-.1-.1-.1-.2-.3l-.2-.2c0-.1-.1-.1-.2-.2-.1 0-.1-.1-.1-.2 0 0-.2-.1-.3-.2 0-.1-.1-.1-.2-.2 0-.1-.1-.2-.1-.3-.1 0-.2-.2-.2-.2 0-.1-.1-.1-.3-.3 0-.1-.1-.2-.1-.2-.1-.1-.1-.2-.2-.2 0 0-.1-.1-.1-.2l-.2-.2c-.1-.1-.1-.2-.2-.2 0 0-.2-.1-.2-.2l-.2-.2c0-.1-.2-.2-.2-.3l-.1-.1c-.1-.2-.2-.2-.2-.3-.1-.1-.1-.2-.1-.3-.1-.1-.2-.1-.2-.2-.1-.1-.2-.1-.3-.2 0-.1 0-.2-.1-.2-.2-.1-.2-.2-.2-.3-.1-.1-.1-.1-.1-.2l-.2-.2c0-.1-.1-.2-.2-.2-.1-.2-.1-.2-.1-.3l-.2-.2c-.1-.1-.1-.2-.1-.3-.1 0-.2-.1-.2-.2-.1-.1-.1-.1-.1-.2-.2-.1-.2-.2-.3-.2 0-.1-.1-.1-.1-.2-.1-.1-.2-.2-.2-.3-.1-.1-.1-.2-.2-.3-.1 0-.1-.1-.2-.2s-.2-.2-.2-.3c0-.1-.2-.2-.2-.2l-.2-.2c-.1-.1-.1-.2-.1-.2l-.2-.2-.2-.2c-.1-.1-.1-.2-.2-.3-.1 0-.1-.2-.2-.2 0 0-.1-.2-.2-.3l-.2-.2c0-.1-.1-.2-.1-.2-.1-.1-.1-.2-.2-.3-.1 0-.1-.1-.1-.2-.1-.1-.2-.2-.3-.2 0-.1-.1-.2-.1-.2 0-.1-.1-.2-.1-.3-.1-.1-.1-.1-.1-.2l-.2-.2c0-.1-.1-.2-.2-.3-.1-.1-.2-.2-.2-.3-.1 0-.1-.2-.2-.2 0-.1-.1-.2-.1-.3-.1-.1-.2-.1-.2-.2l-.2-.2-.2-.2c-6.9-8.7-17.6-14.4-30.1-14.4h-43.8l-87.9 213.4-5.9-159.9c-.3-7.9-2.9-15.1-7.2-21.1l-.3-.3c0-.1-.1-.2-.2-.3-.1 0-.1-.1-.2-.2l-.2-.2s-.1-.2-.2-.3c0-.1-.2-.1-.2-.2-.1-.1-.1-.1-.2-.3-.1 0-.2-.2-.2-.2-.1-.1-.1-.2-.2-.3 0-.1-.1-.1-.1-.2l-.2-.2c-.1-.1-.1-.1-.1-.3l-.2-.2c-.1-.1-.1-.2-.2-.2 0-.1-.1-.1-.2-.3-.1 0-.1-.1-.1-.2l-.2-.2c0-.1-.1-.1-.2-.3 0-.1-.1-.1-.2-.3l-.2-.2c-.1-.1-.2-.1-.2-.2s-.1-.2-.1-.2c0-.1-.1-.2-.3-.3 0-.1 0-.2-.1-.2l-.2-.2c0-.1 0-.1-.2-.3 0-.1-.1-.2-.1-.2-.1-.1-.1-.2-.2-.3-.1 0-.1-.1-.2-.2 0-.1-.1-.1-.2-.2s-.1-.2-.2-.2c0-.1-.1-.2-.2-.2 0-.1 0-.1-.2-.3-.1-.1-.2-.1-.2-.2l-.2-.2c0-.1-.1-.1-.2-.2s-.1-.2-.2-.2c-.1-.1-.1-.2-.3-.2l-.2-.2c0-.1-.1-.1-.1-.1-.1-.1-.2-.3-.2-.3-.1 0-.1-.1-.1-.2-.1 0-.3-.2-.3-.2 0-.1-.1-.2-.2-.3l-.2-.2c0-.1 0-.2-.1-.2s-.2-.2-.2-.2-.1-.2-.2-.3c0-.1-.1-.1-.1-.2s-.1-.2-.2-.2c-.1-.1-.2-.1-.2-.3 0-.1-.1-.1-.2-.2s-.1-.1-.1-.3c-.1 0-.1-.1-.2-.2 0-.1-.1-.1-.1-.3-.1-.1-.2-.1-.3-.2 0-.1-.2-.1-.2-.2s-.1-.1-.1-.2-.1-.1-.2-.2l-.1-.2c0-.1-.2-.1-.2-.3-.1 0-.2-.1-.2-.2-.1-.1-.1-.2-.1-.3-.1 0-.2-.1-.2-.2-.1-.1-.1-.1-.2-.1-.1-.1-.2-.2-.2-.3 0-.1-.2-.1-.2-.3l-.1-.1c-.1-.2-.2-.3-.2-.3 0-.1-.1-.2-.2-.3-7-10-18.6-16.4-31.8-16.4h-44.4l-89.7 219.1L711 449.6c-.2-9.3-3.6-17.7-9.1-24.3-.1 0-.3-.2-.3-.3 0-.1-.1-.2-.2-.2 0-.1-.1-.2-.1-.3l-.2-.2c-.1-.1-.1-.2-.2-.3-.1 0-.2-.1-.2-.2-.1 0-.2-.1-.2-.2s-.1-.1-.1-.2l-.2-.2c-.1-.2-.1-.2-.2-.3-.1-.1-.2-.1-.2-.2s-.1-.2-.2-.3c-.1 0-.1-.2-.2-.2-.1-.1-.1-.1-.2-.3l-.2-.2c-.1-.1-.1-.2-.2-.3-.1 0-.1-.1-.2-.2-.2-.1-.2-.1-.2-.2-.1-.1-.1-.1-.2-.3-.1-.1-.1-.1-.1-.2-.1-.1-.2-.1-.2-.2-.1-.1-.1-.2-.1-.3-.1 0-.1-.2-.2-.3l-.2-.2s-.1-.2-.2-.2c0 0 0-.1-.1-.3-.1 0-.1-.1-.2-.2l-.2-.2c0-.1-.2-.2-.2-.2s0-.1-.1-.2c-.2-.1-.2-.2-.2-.2-.1-.1-.1-.2-.2-.3-.1 0-.1-.1-.3-.2 0 0-.1-.2-.2-.2 0-.1 0-.2-.1-.3-.1 0-.1-.1-.2-.2 0-.1-.1-.1-.2-.2 0-.1-.1-.2-.2-.3 0-.1-.1-.1-.2-.2 0 0-.1-.1-.1-.2-.1-.1-.2-.2-.2-.3 0-.1-.1-.2-.2-.2 0-.1-.2-.1-.2-.2l-.2-.2c-.1-.1-.2-.2-.2-.3-.1-.1-.1-.1-.1-.2s-.2-.2-.2-.2c-.1-.1-.1-.1-.2-.3-.1-.1-.2-.1-.2-.2s-.1-.1-.2-.2c0-.1 0-.1-.1-.2s-.1-.1-.2-.3c-.1-.1-.2-.1-.2-.2s-.1-.2-.2-.3c-.1 0-.1-.1-.2-.2s-.1-.2-.2-.3c-.1-.1-.1-.2-.1-.2-.1-.1-.1-.2-.3-.3-.1 0-.1-.1-.2-.2s-.1-.2-.2-.2c0-.1 0-.2-.2-.3 0 0-.1-.1-.1-.2s0-.2-.2-.3c0-.1-.1-.2-.1-.3-.1 0-.1-.1-.2-.2s-.1-.2-.1-.2c-.2-.1-.2-.2-.2-.2 0-.1-.1-.1-.2-.2l-.2-.2c-.1 0-.1-.2-.1-.2-7.2-8.6-17.9-14-29.9-14h-67.1l28.1 334.9c.4 4.8 2.2 9.2 5 12.9.1 0 .1.1.2.2 0 0 0 .1.1.2.1 0 .1.1.2.2 0 .1.1.2.3.3 0 0 .1.1.1.2.1 0 .1.1.3.2 0 .1.1.2.1.2.1.1.2.2.2.3.1.1.1.1.1.2.2.1.2.1.2.2.1.1.1.2.1.3.1 0 .2 0 .3.2 0 .1 0 .1.2.2.1.1.2.1.2.3 0 .1 0 .1.1.3.1 0 .2.1.2.2s.1.1.2.3c.1 0 .2.1.2.2l.2.2c0 .1.1.2.1.3 0 0 .2.1.2.2 0 .2.1.2.1.3l.2.2c0 .1.1.2.2.2 0 .1.1.1.2.1v.3c.1.2.2.2.3.3 0 .1.1.1.1.2l.2.2c0 .1.2.2.2.3.1 0 .2.1.2.1.1.1.2.2.2.3.1.1.1.2.2.3.1.1.1.2.2.2.1.1.1.1.1.2l.2.2c.1.2.2.2.2.3.1 0 .2.1.2.2s.1.2.2.2.1.2.1.3c.1 0 .2.1.2.2l.1.2c.1.1.2.2.2.3.1 0 .2.1.2.2.1 0 .1.2.2.2.1.1.1.2.2.3.1 0 .1.1.2.2s.1.2.1.2l.2.2.2.2c0 .1.1.2.2.2 0 .1.1.2.2.3 0 0 .1.1.1.2.1 0 .1.1.2.2s.2.1.2.2.1.1.2.2l.2.2c0 .1.1.2.1.2.1.1.1.2.3.2 0 0 0 .2.2.2.1.1.1.2.1.3l.2.2c0 .1.1.2.2.2 0 .1.1.2.1.2.1.1.2.2.3.2.1.1.1.2.1.2.1.1.1.2.2.2 0 .1.1.2.2.3 0 .1.1.2.2.3.1.1.1.1.1.2 4.5 6 11.8 9.9 19.8 9.9h92.7l76.5-186.2 5.8 146.2c.2 5.1 1.8 9.7 4.6 13.5.1.1.1.2.1.2.2.1.2.2.2.2 0 .1.1.2.2.2 0 .2.1.3.1.3l.2.2c.1.1.1.2.2.2l.2.2.2.2.2.2c.1.1.1.2.2.2 0 .1.1.2.2.2 0 .1.1.2.1.3l.2.2.1.2.2.2c0 .1.1.1.2.3.1 0 .2.1.2.2l.2.2s.2.1.2.2c.1 0 .1.2.2.2s.1.1.1.2c.1 0 .2.1.2.2l.2.2.2.2c0 .1.1.1.1.2.1.1.2.1.2.2s.1.1.1.2c.1 0 .1.1.1.2.1 0 .2.1.2.2.1.1.1.1.1.2l.2.2.2.2c0 .2.1.2.2.2 0 .1.1.2.1.3.1.1.1.1.2.3 0 .1 0 .2.1.3 0 .1.1.2.2.2s.1.2.2.2l.1.2c.1.1.1.2.1.3l.2.2c0 .1.1.2.2.3l.2.2c0 .1.1.2.2.3.1.1.1.1.1.2l.3.3c.1 0 .1.1.2.2 0 .1.1.1.2.2l.1.2c.1 0 .1.2.2.3 0 0 .2 0 .2.2 0 .1.1.1.1.2.1.1.2.1.2.3 0 0 .2 0 .2.2.1 0 .1.1.3.2l.1.1c.1.1.2.2.2.3.1 0 .1.1.2.2.1 0 .2.1.2.1.1.1.2.2.2.4l.2.1c0 .1.1.2.2.2.1.2.1.2.1.3l.2.2c.1.1.2.2.2.3.1.1.2.1.2.2.1.1.1.1.1.2l.2.2c.1.1.2.2.2.3.1.1.2.1.3.2 4.4 6.4 11.8 10.5 20.1 10.5h102.3L1096 466.2c7.9-13.5 4.9-29.3-4.2-40.4zM1247.4 425.7s-.1-.1-.1-.2-.1-.1-.2-.3l-.2-.2c-.1 0-.2-.1-.2-.2s-.1-.1-.2-.3c0-.1-.1-.2-.2-.3l-.2-.2s-.1 0-.2-.2c0-.1-.1-.2-.2-.2 0-.1-.1-.2-.2-.3l-.2-.2-.2-.2c-.1-.1-.2-.1-.2-.3 0-.1-.2-.1-.2-.2l-.2-.2-.2-.2-.1-.2c-.2-.1-.2-.1-.3-.2 0-.1 0-.2-.1-.2-.1-.1-.1-.2-.1-.3 0 0-.2-.1-.2-.2l-.2-.2-.2-.2c-.1 0-.1-.2-.2-.3 0-.1-.1-.1-.1-.2-.1-.1-.1-.2-.2-.3 0 0-.1-.2-.2-.2 0-.1 0-.2-.1-.3-.1-.1-.2-.1-.2-.2s-.1-.2-.1-.3c-.1-.1-.2-.1-.3-.2 0-.1 0-.2-.2-.2-.1-.1-.1-.2-.2-.2l-.2-.2c-.1-.1-.2-.3-.2-.3-.1-.1-.1-.1-.2-.3 0-.1 0-.2-.1-.2 0-.1-.1-.2-.1-.2-.1-.2-.2-.3-.2-.4 0 0-.2-.1-.2-.2s-.1-.1-.2-.2-.2-.2-.2-.3c0 0-.1-.1-.1-.2-.1-.1-.1-.1-.1-.2-.1-.1-.1-.2-.3-.3l-.1-.2c-.1-.1-.2-.1-.2-.2s-.1-.2-.1-.2-.2-.2-.2-.3c0 0-.1-.1-.1-.2-.1-.1-.1-.2-.2-.2l-.2-.2s-.1-.1-.1-.3c0-.1-.2-.1-.2-.2-.1-.1-.2-.2-.2-.3l-.2-.2c0-.1-.1-.2-.1-.2-.1-.1-.2-.2-.2-.3-.1 0-.2-.1-.2-.2-.1-.1-.2-.1-.2-.2-.1-.1-.1-.2-.1-.3-.1 0-.2-.1-.2-.2-.1-.1-.1-.2-.2-.2l-.2-.2c-.1-.1-.1-.2-.2-.2 0-.1-.1-.2-.2-.2v-.2c-.1-.1-.2-.3-.2-.3-.1 0-.1-.1-.2-.2l-.2-.2c-7.1-8.7-17.8-14.3-30.1-14.3h-61.5l-64 328c-1.4 7.6.7 15 5.3 20.5.1.1.1.2.2.3.1 0 .1.1.1.1.1.1.2.2.2.3.1.1.1.2.2.2.1.1.1.2.2.2 0 0 .1.2.2.2 0 .1.1.1.2.3 0 0 .1.2.2.2 0 0 0 .2.2.2 0 0 0 .1.1.2.1 0 .2.1.2.2.1 0 .1.2.3.2 0 0 0 .1.1.2.1 0 .1.2.2.2.1.1.1.2.1.3.1 0 .3.1.3.2s.1.1.1.2c.1.1.2.1.2.3 0 .1.2.1.2.2.1 0 .2.1.3.2 0 0 .1.1.1.2.1 0 .1 0 .1.2.1 0 .2 0 .2.2 0 0 .1.1.1.2.1.1.2.2.3.2 0 .1.1.1.2.2 0 .2.1.2.1.2s.2.1.2.2l.3.3v.3c.1.1.2.1.2.2.1.1.1.2.1.2.1.1.2.2.2.3.1.1.1.2.2.2.1.1.1.1.1.2.1.1.1.2.2.2.1.1.1.2.2.3 0 .1 0 .2.2.2.1.1.1.2.2.3l.1.2c.1.1.1.2.2.2.1.1.1.2.2.3 0 0 .1.2.3.2.1 0 .1.2.2.3.1.1.1.1.1.2l.2.2c.1.1.1.2.2.3l.2.2.1.1c.1.1.1.2.2.3 0 0 .1.2.2.3 0 0 0 .1.1.2.1 0 .1.1.2.2 0 0 .1.1.1.2s.1.1.1.2.1.2.2.2c.1.1.2.2.2.3l.2.2c0 .1.2.2.2.3 0 .1.1.1.2.2 0 .1.1.1.1.3.1.1.2.1.2.2.1.1.2.1.2.3.1 0 .1.1.2.2 0 .1.1.1.1.2.1.1.2.2.2.3 0 .1.1.1.2.2 0 .1.1.2.1.2 0 .1.1.2.2.2.1.1.1.2.2.2 4.5 5.5 11.3 9.1 19.2 9.1h78.6l60.7-311.2c2.4-11.4-1-23-8.2-31.7zM1542.3 411.7v-.3h-.3l.1-.3h-.3v-.2h-.3l.1-.2h-.3l.1-.2h-.3l.1-.3h-.3l.1-.2h-.3l.1-.2h-.2l.1-.2h-.3l.1-.3h-.2l.1-.2h-.3v-.2h-.2l.1-.2h-.2v-.3h-.3l.2-.2h-.3v-.2h-.3l.1-.2h-.3l.1-.3h-.3l.1-.2h-.3l.1-.2h-.3l.1-.3h-.2l.1-.3h-.2l.1-.2h-.2v-.3h-.3l.1-.2h-.3l.1-.2h-.2l.1-.1h-.3l.1-.3h-.3l.1-.2h-.3l.1-.2h-.2l.1-.2h-.3l.2-.3h-.3l.1-.2h-.3l.1-.3h-.3l.2-.2h-.3l.1-.2h-.3l.1-.2h-.2v-.2h-.3l.1-.2h-.3l.1-.3h-.3l.1-.2h-.2l.1-.2h-.3l.1-.3h-.3l.2-.2h-.3v-.2h-.2l.1-.2h-.3v-.3h-.3l.1-.1h-.3l.1-.2h-.3l.1-.3h-.2v-.3h-.3l.2-.2h-.3l.1-.3h-.3l.2-.2h-.3v-.2h-.2l.1-.3h-.2l.1-.2h-.3v-.2h-.1v-.2h-.2l.1-.2h-.2v-.2h-.2l.1-.2h-.3l.1-.3h-.2l.1-.2h-.3l.2-.3h-.2l.1-.2h-.4l.2-.2h-.3l.1-.3h-.3v-.3h-.2l.2-.2h-.3v-.2H1438c1.7-6.2 3.4-11.9 5.3-16.6 3.7-8.6 8.5-15.4 14.4-20.5 5.9-5 13.6-8.5 22.9-10.3 9.4-1.8 20.9-2.7 34.6-2.7 5.8 0 12.4.1 19.7.3 7.3.2 14.8.6 22.6 1l21.5-59.2c2.4-6.5 1.1-13.2-2.4-18.3 0-.1-.1-.1-.2-.2 0-.1 0-.2-.1-.2 0-.2-.1-.2-.1-.2-.1-.2-.2-.2-.2-.3 0-.1-.2-.1-.2-.2-.1-.1-.1-.2-.2-.3 0-.1 0-.2-.2-.2-.1-.1-.1-.1-.1-.2-.1-.1-.2-.1-.2-.3 0-.1-.1-.2-.1-.2-.2-.1-.2-.1-.2-.2l-.2-.2c-.1-.2-.1-.3-.1-.3l-.2-.2c-.1 0-.1-.2-.2-.2-.1-.1-.1-.2-.1-.2-.1-.1-.2-.2-.2-.3l-.2-.2-.2-.2c0-.1 0-.2-.1-.3-.1 0-.2-.1-.2-.2-.1-.1-.1-.1-.1-.2s-.1-.1-.2-.3c0-.1-.1-.1-.1-.2-.1 0-.2-.1-.2-.2 0 0-.1-.1-.3-.2 0 0-.1-.1-.1-.3 0 0-.1-.1-.1-.2-.2 0-.2-.1-.2-.2s-.2-.2-.2-.3l-.2-.2s-.1-.1-.1-.2-.1-.1-.2-.3c0 0-.1 0-.2-.2 0-.1-.1-.1-.2-.2 0-.1 0-.2-.1-.2-.1-.1-.2-.1-.2-.3 0 0-.1-.1-.1-.2-.1-.2-.1-.2-.2-.2 0-.1-.1-.2-.2-.3-.1 0-.1-.1-.2-.2 0-.1-.1-.2-.2-.2 0-.1-.1-.2-.2-.2 0-.1 0-.1-.1-.2s-.2-.1-.3-.2c0-.2-.1-.2-.1-.3-.1-.1-.2-.1-.2-.2-.1-.2-.1-.2-.2-.2-.1-.1-.1-.1-.3-.2 0-.1 0-.1-.1-.2 0-.1-.1-.1-.2-.2 0-.1-.1-.1-.2-.2 0-.1-.1-.2-.1-.3 0 0 0-.1-.2-.2 0-.1-.1-.2-.1-.2-.1-.1-.2-.2-.2-.3l-.2-.2c-.1-.1-.1-.2-.2-.2-.1-.1-.1-.2-.2-.2 0 0-.2-.2-.2-.3 0-.1-.1-.2-.2-.2s-.1-.2-.2-.2l-.2-.2c0-.1-.1-.2-.2-.3 0 0-.1-.1-.1-.2-.1 0-.1-.1-.1-.3-.1-.1-.2-.1-.2-.2-.1 0-.2-.1-.2-.2s-.2-.1-.2-.3c-.1 0-.1-.1-.2-.2-3.3-5.1-9-8.6-15.8-8.9-13.3-.6-29.6-.9-45.1-.6-28.3.4-53 2.7-74.2 7.9-21.2 5.2-39.4 13.8-54.7 25.6-15.3 11.9-27.9 27.4-37.9 46.9-10 19.3-17.8 43.4-23.2 72.1l-63 322.4c-1.7 8.9.9 17.5 6.1 23.9 0 0 .1.1.1.2.1.1.2.1.2.2.1.1.1.1.2.3l.2.2.2.2c.1.1.2.1.2.3 0 0 .1.1.1.2l.2.2c.1 0 .2.1.2.2.1 0 .2.2.2.2 0 .1 0 .2.2.3 0 .1.1.1.1.1.2.2.2.2.2.3.1 0 .2.2.2.2 0 .2.1.2.1.2.1.2.2.2.3.2 0 .1 0 .2.1.2.1.1.2.2.2.3.1.1.1.2.2.2.1.1.1.1.1.2.1.2.1.2.2.2 0 .1.1.2.1.3.2.1.2.2.3.3 0 .1.1.1.1.2.1 0 .1.2.2.3.1 0 .1.1.1.2l.2.2c0 .1.2.2.2.2s.1.2.2.3l.1.2c.1 0 .2.1.2.2.1.1.2.2.2.3l.2.2.2.2c.1 0 .1.1.2.2 0 0 .1.2.2.3 0 .1.1.1.2.2.1 0 .1.1.1.2.1.1.2.2.2.3.1.1.2.1.2.2s.1.1.2.2l.2.2c.1 0 .1.1.2.2s.1.2.1.2c.1.1.2.1.3.2 0 .1.1.2.1.3l.2.2c0 .1.1.1.1.2l.3.3c0 .1 0 .1.2.1.1.2.1.3.2.3s.1.2.1.2l.2.2c0 .1 0 .2.1.3.1 0 .2.1.2.2l.2.2c.1.1.1.2.2.2 0 .2.1.2.2.3 0 .1 0 .2.1.2s.1.1.2.2c0 .1.1.2.1.3.1 0 .1.1.2.2 0 .1.1.1.2.2l.2.2s.1.1.1.2c.1 0 .2.1.2.2s.1.2.2.3c0 0 .1.1.1.2.1 0 .2.1.2.2.1 0 .1.2.2.2 5.2 6.5 13.1 10.6 22.3 10.6h73.7l52.6-271.9h42.1c30.2 0 57.3-18.6 68.1-46.8l14.8-38.6h-.3zM1805 411.7l.1-.3h-.3l.2-.3h-.3l.1-.2h-.2l.1-.2h-.3l.1-.2h-.3l.1-.3h-.3l.1-.2h-.3l.1-.2h-.2v-.2h-.2l.1-.3h-.4l.1-.2h-.2l.1-.2h-.2v-.2h-.3l.2-.3h-.3l.1-.2h-.3v-.2h-.2l.1-.2h-.3l.1-.3h-.3l.1-.2h-.3l.1-.2h-.3l.1-.3h-.2l.1-.3h-.2l.1-.2h-.2l.1-.3h-.3l.1-.2h-.2l.1-.2h-.3l.1-.1h-.3l.1-.3h-.3l.1-.2h-.3l.1-.2h-.3l.1-.2h-.2l.2-.3h-.3l.1-.2h-.3l.1-.3h-.2v-.2h-.3l.1-.2h-.2v-.2h-.3l.1-.2h-.2l.1-.2h-.3l.1-.3h-.3l.1-.2h-.3l.2-.2h-.3l.1-.3h-.3v-.2h-.2l.1-.2h-.3l.1-.2h-.3l.1-.3h-.3l.1-.1h-.2l.1-.2h-.2v-.3h-.2l.1-.2h-.2l.1-.2h-.3l.2-.3h-.3l.1-.2h-.3l.1-.2h-.2l.1-.3h-.2l.1-.2h-.3l.1-.2h-.2v-.2h-.2v-.2h-.2l.1-.2h-.3l.1-.2h-.3l.1-.3h-.3v-.2h-.2l.1-.3h-.3l.1-.2h-.3l.1-.2h-.3l.1-.3h-.2l.1-.3h-.2v-.2h-.3l.2-.2h-92.3l13.5-66.5c2.8-16.3-2-31.9-11.8-43.4v-.2c-.2-.1-.3-.2-.3-.3-.1-.1-.1-.2-.2-.2 0 0-.1-.1-.2-.3 0-.1-.1-.1-.1-.2l-.2-.2c-.1-.1-.1-.2-.2-.2l-.1-.2c-.1-.1-.1-.2-.2-.2-.1-.1-.2-.2-.2-.3 0 0-.2-.1-.2-.2 0 0 0-.1-.1-.2-.1 0-.2-.2-.2-.3l-.1-.2c-.1 0-.2-.1-.2-.2s-.1-.1-.2-.2c0 0-.1-.2-.2-.2l-.2-.2c0-.1-.1-.2-.1-.2 0-.1 0-.2-.2-.3-.1 0-.1-.1-.2-.2s-.1-.2-.2-.2c-.1-.1-.1-.2-.1-.3-.1 0-.2-.1-.2-.2s-.1-.1-.2-.2c0-.1 0-.1-.1-.2l-.2-.2c0-.1-.1-.2-.2-.2 0-.1-.1-.2-.1-.2-.1-.2-.2-.2-.2-.3l-.2-.2c-.1 0-.2-.1-.2-.2 0 0-.1-.1-.1-.3 0-.1-.1-.1-.1-.2-.2-.1-.2-.2-.3-.2-.1-.1-.1-.2-.1-.2-.1-.1-.1-.2-.2-.3-.1-.1-.1-.2-.2-.2l-.3-.3c-.1 0-.1-.2-.1-.2-.2-.1-.2-.2-.2-.3-.1-.1-.1-.2-.2-.3 0 0-.1-.1-.1-.2-.2-.1-.2-.1-.2-.3-.1 0-.1-.1-.1-.2-.1 0-.1-.1-.2-.2 0 0-.1-.1-.1-.2 0 0-.1-.2-.2-.2s-.1-.2-.1-.3c-.1 0-.1-.2-.2-.2 0-.1 0-.2-.1-.2-.1-.1-.1-.2-.2-.3l-.2-.2s-.1-.1-.1-.2-.2-.2-.2-.3c0 0-.1-.1-.1-.2l-.2-.2c-.1-.1-.1-.1-.1-.2-.1-.1-.2-.1-.2-.3l-.2-.2c-.1 0-.1-.1-.2-.2s-.1-.1-.1-.3c-.1-.1-.2-.1-.2-.2s0-.1-.2-.2l-.2-.2s-.1-.1-.1-.3c-.1-.1-.2-.1-.2-.2s-.1-.2-.2-.3l-.1-.2c-.1-.2-.1-.2-.2-.3-9.7-11.6-24.3-19.1-40.9-19.1l-43.9.3-71.9 358.5c-1.3 7.7-2.5 15.3-3.5 22.6-.9 7.3-1.3 14.1-1.3 20.6 0 27.8 7.1 50.4 21.3 67.5 0 .1.1.1.2.2l.2.2c.1.1.1.2.2.3l.2.2c.1.1.2.1.2.2.1.1.1.1.1.2s.2.2.2.3c.1 0 .1.1.2.2 0 .1.1.1.2.2 0 .1.1.1.1.2.1.2.1.2.2.3.1.1.1.1.1.2l.2.1c0 .1.1.2.2.3 0 .1.1.2.2.2.1.1.1.2.2.2.1.1.1.1.1.2.1 0 .2.2.2.3l.2.2c.1 0 .1.2.2.2 0 .1.1.2.2.3l.2.2c0 .1 0 .2.1.2l.1.2c.1.1.2.2.2.3.1.1.1.2.1.2l.2.2c.1 0 .1.2.1.2.1 0 .1.2.2.2 0 0 .1.2.1.3.1 0 .2.1.2.2 0 0 .1.1.2.3 0 0 .2.1.2.2l.2.2s.2.1.2.2c.1.1.1.2.2.3 0 0 .2.1.2.3l.2.2c.1.1.2.1.2.2s.1.2.2.3c0 0 0 .1.2.2 0 .1.1.1.2.2s.1.2.2.3c.1.1.2.1.3.2 0 .1 0 .1.1.2.1.2.1.2.2.2 0 .2 0 .2.2.3l.1.2c.1.2.2.2.2.3 0 .1.2.1.2.2.1.1.2.1.2.2s.1.1.1.3c.1 0 .1.1.3.2 0 .1 0 .1.1.3.1.1.1.1.1.2l.2.2.2.2s.1.2.2.2c.1.1.1.2.2.2 0 0 .1.2.2.2 0 .1.1.2.2.2 0 .1.1.3.2.3l.1.2c.1.1.2.1.2.2.1.1.1.3.2.3 0 0 .1.2.2.2 0 0 0 .1.2.2.1.1.1.2.1.2.2.1.2.2.2.3l.2.2c2.1 2.5 4.3 4.9 6.6 7.2 18.5 17.7 48 26.6 88.5 26.6 4.6 0 56.3-.1 56.3-.1 13.4.1 24.4-9 27.9-20.9l22.5-65.1h-.3l.1-.2h-.2v-.3h-.2v-.2h-.3v-.2h-.2l.1-.2h-.3l.2-.3h-.3l.1-.2h-.3l.1-.3h-.2l.1-.2h-.2v-.2h-.3v-.3h-.3l.1-.2h-.1v-.2h-.2v-.3h-.2v-.2h-.3l.1-.2h-.2l.1-.3h-.2v-.2h-.3l.1-.2h-.2v-.3h-.3l.1-.2h-.3l.1-.2h-.2v-.2h-.3l.1-.3h-.2v.1h-.3l.2-.2h-.2v-.3l-.2.1v-.3h-.3l.1-.3-.2.1v-.3h-.2l.1-.2h-.2v-.2h-.3l.1-.3h-.3l.1-.2h-.2v-.3h-.2v-.2h-.2v-.2h-.3l.2-.2h-.3l.1-.2h-.2v-.3h-.2v-.2h-.1v-.2h-.3l.1-.3h-.3l.1-.2h-.3l.2-.2h-.3l.1-.3h-.2v-.2h-.2l.1-.2h-.3v-.3h-.2l.1-.2h-.2v-.2h-.4l.2-.2h-.3v-.2h-.2v-.2h-.3l.1-.2h-.3l.1-.3h-.2v-.2h-.2v-.2h-.2v-.2h-.2v-.3h-.2l.1-.3h-.2v-.3h-.2v-.2h-.2v-.2l-.3.1.1-.3h-.2l.1-.2h-.3l.1-.3h-.3l.1-.3h-.2v-.2h-.2l.1-.2h-.3v-.2c-2.2 0-6.4.1-12.6.3-6.1.3-12.9.3-20.5.3h-37.3c-11.7 0-20.9-1.6-27.2-4.7-1-3.5-1.6-7.4-1.6-11.8 0-7.8.9-15.5 2.7-23.3l25.4-131.2h42.8c30.2 0 57.3-18.6 68.1-46.8l14.9-38.6h-1.5z"/><path class="st1" d="M393.6 370.6c11.9-6.3 28.7-9.6 50.5-9.6h65.4c11.1 0 63.9.7 80.3.7l23.6-62.1c2.9-7.7 1.6-15.7-2.5-21.9-.1-.1-.2-.1-.2-.2-.1-.1-.2-.1-.3-.2 0-.1 0-.2-.2-.3 0-.1-.1-.1-.2-.2 0-.1-.1-.1-.1-.2s-.2-.1-.2-.3c0 0-.1-.1-.2-.3-.1 0-.1-.1-.1-.1l-.3-.3-.1-.2c-.1-.1-.2-.1-.3-.2v-.2l-.2-.2c0-.2-.1-.2-.2-.2-.1-.2-.1-.2-.2-.3 0-.1-.1-.2-.2-.2-.1-.1-.1-.2-.2-.2 0-.1-.1-.2-.2-.2-.1-.1-.1-.2-.2-.2 0-.1-.1-.1-.2-.2s-.1-.3-.1-.3c-.1-.1-.2-.2-.2-.3-.1 0-.1-.1-.2-.2 0 0-.1-.1-.3-.2 0-.1-.1-.2-.1-.3l-.2-.2-.2-.2c0-.1-.1-.2-.1-.3 0 0-.1-.1-.1-.2-.1 0-.2-.1-.2-.2 0 0-.2-.1-.2-.2-.1-.1-.1-.2-.1-.3 0 0-.2-.1-.2-.2-.1-.1-.2-.1-.2-.2-.1-.1-.2-.1-.2-.3-.1 0-.1-.1-.2-.2 0-.1-.2-.1-.2-.2s0-.1-.2-.2c-.1-.1-.2-.1-.2-.2s-.1-.1-.2-.2c0-.1-.1-.2-.1-.2-.1-.1-.1-.1-.3-.2 0-.1-.1-.1-.1-.1-.1-.2-.2-.2-.2-.4l-.2-.2-.2-.2c0-.2-.1-.2-.1-.3-.1-.1-.2-.1-.2-.1-.1-.2-.2-.2-.2-.3 0-.2-.1-.3-.1-.3l-.2-.2c-.1-.1-.3-.1-.3-.2s-.1-.1-.2-.2c-.1-.2-.1-.3-.1-.3 0-.1-.2-.2-.2-.2l-.2-.2c0-.1-.1-.2-.2-.3-.1-.1-.1-.2-.2-.2l-.2-.2c-.1-.2-.1-.2-.1-.3-.1-.1-.2-.1-.3-.2l-.2-.2c-.1-.1-.1-.2-.2-.2 0-.1-.1-.2-.2-.3 0 0-.1-.1-.1-.3-.1 0-.2-.1-.3-.2 0-.1-.1-.1-.1-.2-.1-.1-.2-.1-.2-.3l-.2-.2-.2-.2c-4-6.1-10.7-10.3-18.6-10.4-8.5-.2-16.1-.3-22.8-.4-14.4-.3-88.3-.4-100.1-.4-27.8 0-53.5 2-76.9 6-23.4 3.9-44.2 11-62.1 21.1-18 10-32.9 23.5-44.9 40.1-11.8 16.7-20 37.7-24.6 63-2.7 15-4.1 28.8-4.1 41.5 0 13.6 1.9 26.1 5.5 37.7 3.7 11.5 9.6 21.9 17.8 31.6.1.1.1.2.2.2 0 .1.1.2.2.2 0 .1 0 .2.2.2l.2.2v.1s.2.1.2.2c.1.1.2.2.2.3l.1.2c.1 0 .1.1.1.2.2.1.2.1.3.2.1.1.1.2.1.3 0 0 .2.1.3.2 0 .1 0 .1.1.2.1 0 .2.2.2.3l.2.2c.1.1.1.1.1.2l.1.2c.1 0 .2.2.2.3l.2.2c.1.1.2.1.2.2.1.1.1.1.1.3.1 0 .1.1.1.2h.1l.2.2.2.2h.1c0 .1 0 .1.1.2s.1.2.1.2h.1c0 .1.1.1.2.2 0 0 .1.1.1.2v.1c.1.1.2.1.2.2s0 .1.1.2.2.1.2.2v.1c0 .1.1.1.2.1v.1c.1 0 .1.1.1.1l.1.1.2.2c.1.1.1.1.1.2l.2.2h.1c.1.1.1.2.2.2l.2.2h.1c0 .1 0 .2.1.2 0 .1.2.2.2.2s.1.2.2.2v.1c.1.1.1.1.2.1.1.1.1.2.2.3.1 0 .1.1.1.1.2.1.2.2.2.2v.1l.2.2c0 .1.1.2.1.3.1.1.1.1.1.2h.1c0 .1.1.2.1.2.1.1.1.2.1.3 0 0 .2.1.3.2 0 .1.1.2.1.3.1 0 .2.1.2.2s.1.1.1.3l.2.2c.1.1.1.2.2.3 0 0 .2.1.2.2s.1.2.2.3l.1.1.3.3c.1.1.1.1.1.2l.1.1.2.2c.1 0 .1.1.2.2l.2.2.2.2c.1.1.2.1.2.2l.2.2.1.2c.1.1.2.2.2.3.1 0 .1.1.1.2.1.1.2.1.2.2s0 .2.1.2c8.3 9.6 19.1 18.4 32.9 26.4 13.6 8 30.4 15.3 50.5 21.8l58 18.3c11.6 3.9 20.6 8.2 27.4 13.1 1.5 4.1 2.3 8.6 2.3 13.6 0 2.4-.1 4.7-.4 7-.2 2.4-.5 4.8-1 7.1-3.7 18.3-12.4 30.5-26.3 36.3-13.9 5.9-34.5 8.8-61.9 8.8H298.7c-13.7 0-27.8-.2-42.4-.4-14.6-.2-28.5-.5-41.7-1l-20 53.9c-4.1 11-1.4 22.5 5.4 30.4l.2.2s0 .2.1.3c.2 0 .2.1.2.2l.2.2.2.2s.1.1.2.3c0 0 .1.1.2.1 0 .1.1.1.2.2s.1.2.2.3c.1 0 .1.2.2.2 0 0 .1.1.1.2.1.1.2.1.3.2 0 .2.1.2.2.3 0 .1.1.1.2.2 0 .1.1.1.1.2.1.1.2.1.3.2 0 .1.1.2.1.3 0 0 .2.1.2.2.1.1.2.2.2.3 0 0 .1.1.1.2.2.1.2.2.3.2.1.1.1.2.2.3.1 0 .1.1.2.2 0 .2.2.2.2.2.1.2.2.3.3.3 0 0 0 .2.1.2 0 .1.1.1.1.3l.2.2c.1.1.1.2.2.3 0 0 .1.2.2.2.1.1.1.2.1.2.2.1.2.3.3.3.1 0 .1.1.1.2.2.1.2.2.3.2 0 .1 0 .2.2.3l.2.2c.1 0 .1.1.1.2.1.1.2.1.2.3 0 .1 0 .1.1.2s.2.1.2.3c.1 0 .1.1.1.2.2.1.2.2.2.3l.2.2c0 .1.1.2.2.2.1.1.1.2.2.3.1.1.1.1.1.2.1.1.1.2.3.2 0 .1.1.2.1.3.1 0 .1.1.3.2 0 .2 0 .2.1.2l.2.2c0 .1.1.2.2.2.1.1.1.2.2.2.1.1.1.2.2.3.1.1.1.1.1.2.1 0 .2.1.2.2s0 .2.2.2c.1.1.1.1.3.2l.1.2c0 .1.1.2.2.3 0 .1 0 .2.2.2.1 0 .1.1.2.2 0 .1.2.2.2.2.1.1.2.3.2.3 0 .1 0 .2.1.2 0 .1.1.2.1.2.1.1.1.2.3.3 0 0 .1.1.1.2.1.1.2.1.2.2.1.1.1.1.1.2 5.3 6.3 13 10.4 21.9 10.5 16.8.1 33.3.3 49.2.5 29 .5 53.8.6 74.8.6 32.4 0 60.7-2.1 85-6.3 24.4-4.2 45.4-11.5 62.9-21.8 17.5-10.4 31.6-24 42.3-41.1 10.7-17.1 18.5-38.9 23.5-65 2.8-14.1 4.1-27.2 4.1-39.4 0-26.8-7.7-50.2-22.9-70.4 0 0-.1-.1-.1-.2l-.1-.1v-.1l-.1-.1c0-.1-.1-.2-.1-.2l-.1-.1c0-.1-.1-.1-.1-.1-.1 0-.1-.1-.1-.1h-.2v-.1c-.1 0-.1-.1-.1-.2l-.1-.1s-.1-.1-.1-.2v-.1l-.2-.1v-.1l-.1-.2s-.1 0-.1-.1v-.2c-.1 0-.1-.1-.1-.1s-.1 0-.1-.1c0 0-.1 0-.1-.1 0 0-.1 0-.2-.1l-.1-.1s-.1 0-.1-.1-.1-.1-.1-.2h-.1v-.2s-.1 0-.2-.1v-.1s-.1 0-.1-.1v-.2s-.1 0-.1-.1-.1-.1-.1-.2h-.2l-.1-.1c0-.1 0-.1-.1-.2 0 0 0-.1-.1-.1v-.1c0-.1-.1-.1-.1-.2 0 0-.1 0-.2-.1v-.1l-.1-.1v-.1l-.2-.1-.1-.1v.1c-.1-.1-.1-.1-.1-.2s-.1-.1-.1-.1l-.1-.1v-.1c-.1 0-.1 0-.1-.1s-.1-.1-.1-.1l-.1-.1c-.1-.1-.1-.2-.1-.2h-.1c0-.1-.1-.2-.1-.2v-.1c-.1-.1-.1-.1-.2-.1v-.1c0-.1-.1-.1-.1-.1l-.1-.1v-.2l-.1-.1-.1-.1v-.1h-.1c0-.1-.1-.2-.1-.3l-.1-.1-.1-.1c0-.1 0-.1-.1-.1v-.1l-.1-.1-.1-.2-.2-.2v-.1l-.2-.2v-.1l-.2-.2h-.1c0-.1-.1-.1-.1-.2v-.1l-.1-.1-.1-.1c-.1 0-.1-.1-.1-.1v-.1s-.1-.1-.1-.2l-.1-.1c-.1 0-.1 0-.2-.1 0-.1 0-.1-.1-.1l-.2-.1v-.1l-.1-.1c-.1 0-.1 0-.1-.1 0 0-.1 0-.1-.1 0 0 0-.1-.1-.2v-.1l-.1-.1s-.1-.1-.2-.1l-.2-.2v-.1s-.1-.1-.1-.2-.1-.1-.2-.2h-.1l-.1-.1v-.1s-.1-.1-.2-.1-.1-.1-.1-.1c0-.1-.1-.1-.1-.2v-.1c-.1-.1-.1-.1-.1-.2-.1 0-.1 0-.1-.1 0 0 0-.1-.1-.1l-.1-.1c0-.1-.1-.1-.1-.1s-.1 0-.1-.1v-.2l-.1-.1c0-.1-.1-.1-.1-.1l-.1-.1c0-.1-.1-.1-.1-.1l-.1-.1c0-.1-.1-.1-.1-.1v-.1l-.1-.1-.2-.1-.1-.1s-.1 0-.1-.1-.1-.2-.1-.2l-.1-.1-.1-.1v-.1l-.2-.1-.1-.1v-.2h-.1c-.1-.1-.1-.2-.1-.2l-.1-.1c-15.3-20.2-42.3-36.6-81-49.2l-62.8-20.4c-10.9-3.2-19.4-7-25.7-10.9-1.2-3.7-1.8-7.7-1.8-12.2 0-5.1.6-10.6 2.1-16.2 2.5-14.2 9.7-24.4 21.7-30.7zM1152.2 330.7c0 .1.1.1.2.3 0 0 .1.1.1.2.1 0 .1.1.2.3.1 0 .1 0 .2.2 0 0 .2.1.2.2l.2.2c0 .1.1.2.1.3l.2.2c.2 0 .2.1.2.2l.2.2c0 .1.1.1.2.3 0 0 .1.1.1.2.1 0 .2.1.2.2.1.1.2.1.2.3.1.1.1.1.1.2l.2.2c0 .1.1.1.1.2l.2.2.1.2c.1.1.1.2.2.2.1.1.1.2.2.2.1.1.2.1.2.2s.2.1.2.2l.2.2c.1.2.1.3.1.3l.2.2c0 .1.1.2.2.3 0 .1.1.2.1.2s.2.2.2.3c.1.1.1.2.1.2 0 .1.1.2.1.2.2 0 .2.1.3.3l.2.2.1.2c.1.1.1.2.2.3 0 .1.1.2.3.3 0 .1 0 .1.1.2s.1.2.2.3c0 0 .1.1.1.3.1 0 .2 0 .3.2l.2.2c.1 0 .2.1.2.2.1 0 .2.1.2.2l.2.2s.1.1.1.2c.1.1.2.1.2.2.1.1.2.2.2.3 0 .1.2.1.2.2s.1.2.2.2c.1.1.1.2.1.2.1.2.2.2.2.3l.2.2c0 .1.1.2.2.2.1.1.1.1.2.3 0 .1.1.2.2.2l.2.2c0 .1.1.1.2.2 0 .1.1.2.2.3l.2.2.2.2c.1.1.1.2.2.3l.1.1c.2.2.2.3.2.3.1.1.2.1.2.2.1.1.2.2.2.3l.2.2c.1.1.1.2.2.3l.2.2c0 .1.1.2.2.2 7.1 10 22.3 15.3 45.3 15.9 22.5.6 40.7-3.1 54.4-11.1 13.7-8 22.2-23.2 25.6-45.5 1.5-10.2 0-18.2-4.5-24-.1-.1-.2-.1-.2-.3l-.2-.2c0-.1-.1-.1-.1-.2-.1-.1-.1-.2-.2-.2 0 0-.2-.2-.2-.3l-.1-.2c-.1 0-.1-.2-.3-.2-.1 0-.1-.1-.1-.2-.1-.1-.1-.2-.2-.3-.1 0-.1-.1-.1-.2-.1-.1-.2-.2-.3-.2-.1-.1-.1-.1-.2-.3 0-.1-.1-.2-.1-.2l-.3-.3c0-.1-.1-.2-.2-.2 0-.2-.1-.2-.2-.3-.1-.1-.1-.2-.2-.2 0-.1-.1-.1-.1-.2-.1-.1-.2-.1-.2-.3-.1-.1-.2-.2-.2-.3-.1 0-.2-.1-.2-.1-.1-.1-.2-.1-.2-.2s0-.2-.2-.3l-.2-.2-.2-.2c-.1-.1-.1-.2-.2-.3 0 0-.1-.2-.2-.2 0-.1-.1-.2-.2-.2-.1-.1-.1-.2-.1-.2-.2-.1-.2-.2-.2-.3l-.2-.2-.2-.2c-.1-.1-.1-.2-.2-.3-.1 0-.1-.1-.1-.2l-.2-.2-.3-.3c-.1 0-.1-.1-.2-.2 0-.1 0-.2-.1-.2l-.2-.2-.2-.2c0-.1-.2-.1-.2-.2-.1-.1-.1-.2-.1-.2-.1-.1-.2-.2-.2-.3-.2-.1-.2-.1-.2-.2-.2-.1-.2-.2-.2-.3 0-.1-.1-.1-.2-.2s-.2-.1-.2-.2-.1-.2-.1-.2l-.3-.3-.2-.2s0-.1-.1-.2c0-.1-.1-.2-.1-.2l-.2-.2c-.1-.1-.1-.1-.1-.2-.1-.1-.1-.2-.2-.3-.1 0-.1-.1-.1-.2-.1-.1-.2-.1-.2-.2s-.2-.2-.2-.2c0-.1-.1-.2-.2-.3-.1 0-.1-.1-.1-.2-.1-.1-.1-.2-.2-.2 0-.1 0-.1-.2-.3-.1 0-.1 0-.2-.2-.1 0-.1-.1-.2-.2 0 0-.2-.1-.2-.2 0 0-.1-.1-.1-.2l-.2-.2c-.1-.1-.1-.1-.1-.2-.1 0-.2-.2-.2-.2-.1-.1-.2-.1-.2-.2-1.5-2.1-3.3-3.8-5.5-5.3-8.5-5.9-21.8-9.2-39.8-9.7-10.5-.3-20.3.4-29.2 2.1-8.8 1.6-16.6 4.5-23.8 8.8-7.1 4.2-12.9 10.1-17.6 17.5-4.5 7.5-7.7 16.8-9.4 28.3-1.4 9.4.1 17.1 4.5 23.1 0-.3.2-.2.2-.1z"/><path class="st2" d="M825.7 539.6 738 752.9h-92.7c-12.7 0-23.5-9.8-24.5-22.5l-28.1-334.9h67.1c21.1 0 38.4 16.9 38.8 38.1l18.1 203.7 99-241.9H860c21 0 38.1 16.4 38.9 37.3l7.4 203.2 99.1-240.5h43.8c28.5 0 47.2 29.8 34.9 55.5L960 752.9H857.7c-13.3 0-24.3-10.5-24.7-23.8l-7.3-189.5zM1143.2 395.5h61.5c24.4 0 42.7 22.3 38.1 46.2l-60.7 311.2h-78.7c-15.5 0-27.3-14.2-24.2-29.4l64-328zm84.3-144.8c18 .5 31.3 3.8 39.8 9.7 8.6 5.9 11.9 15.7 9.8 29.1-3.4 22.3-11.8 37.5-25.6 45.5-13.7 8.1-31.8 11.8-54.3 11.1-36.8-1.1-53.4-13.9-49.7-38.7 1.7-11.4 4.9-20.8 9.4-28.3 4.7-7.5 10.5-13.3 17.6-17.5 7.2-4.3 15.1-7.2 23.8-8.8 8.9-1.7 18.6-2.4 29.2-2.1zM1529.7 395.5l-14.8 38.6c-10.9 28.3-38 46.9-68.1 46.9h-42.1L1352 753h-73.6c-18.1 0-31.7-16.6-28.3-34.3l63.1-322.4c5.4-28.7 13.2-52.8 23.2-72.1 10-19.4 22.6-35 37.9-46.9 15.3-11.8 33.5-20.4 54.7-25.6 21.2-5.2 45.9-7.4 74.2-7.9 15.5-.3 31.9.1 45.1.6 13.6.5 22.6 14.1 18 26.9l-21.5 59.2c-7.8-.4-15.2-.8-22.5-1-7.3-.2-13.9-.3-19.8-.3-13.7 0-25.2.9-34.5 2.7-9.4 1.9-17 5.2-22.9 10.2-6 5-10.7 11.9-14.3 20.5-3.7 8.7-6.6 19.6-9 32.9h107.9zM1684.1 395.5l16.9-82.7c5.7-32.5-19.4-62.3-52.4-62.2l-43.9.3-71.8 358.6c-1.3 7.7-2.5 15.3-3.5 22.6-.9 7.3-1.3 14.1-1.3 20.6 0 31.8 9.2 56.7 27.7 74.4 18.4 17.7 47.9 26.7 88.5 26.7 4.5 0 56.2-.1 56.2-.1 13.5.1 24.5-9 27.8-20.9l22.5-65.1c-2.2 0-6.4.1-12.6.3-6.1.3-12.9.3-20.5.3h-37.3c-15.4 0-26.3-2.7-32.4-8.2-6.2-5.5-9.3-13.7-9.3-24.6 0-7.8.9-15.5 2.8-23.2l25.3-131.2h42.8c30.2 0 57.2-18.6 68.1-46.9l14.8-38.6h-108.4zM576.9 345.5c-16.5 0-69.2-.7-80.4-.7h-65.2c-21.9 0-38.8 3.2-50.6 9.5-11.9 6.3-19.2 16.5-21.8 30.6-1.4 5.6-2.1 11-2.1 16.1 0 10.8 3.2 19 9.6 24.7 6.4 5.7 16.6 10.6 30.8 14.8l62.8 20.4c38.7 12.6 65.7 29 81 49.2 15.2 20.2 22.9 43.6 22.9 70.3 0 12.3-1.4 25.3-4.1 39.5-5 26.2-12.8 47.9-23.6 65.1-10.8 17-24.9 30.8-42.4 41.1-17.6 10.3-38.5 17.6-62.8 21.8-24.4 4.2-52.8 6.4-85.2 6.4-20.9 0-45.9-.3-74.8-.7-15.9-.3-32.4-.4-49.2-.6-20.2-.1-34.3-21.1-27-40.5l19.9-53.9c13.2.5 27.1.9 41.7 1 14.6.3 28.7.4 42.4.4H361.6c27.4 0 48-2.9 61.9-8.8 13.9-5.8 22.6-17.9 26.3-36.3.5-2.3.8-4.7 1-7.1.2-2.3.4-4.6.4-7 0-11.2-3.5-20.1-10.6-26.4-7-6.3-17.6-11.8-31.7-16.6l-58.1-18.3c-20.1-6.6-37-13.8-50.6-21.8-13.6-8-24.6-16.8-32.8-26.4-8.2-9.7-14.1-20.1-17.8-31.6-3.6-11.5-5.5-24-5.5-37.7 0-12.7 1.4-26.5 4.1-41.5 4.6-25.3 12.8-46.3 24.6-63 12-16.6 26.9-30 44.9-40.1 18-10.1 38.7-17.2 62.1-21.1 23.4-4 49.1-6.1 76.9-6.1 11.8 0 85.8.1 100.1.4 6.7.1 14.3.2 22.8.4 15.9.3 26.8 16.8 21 32l-23.7 62.5z"/></svg>